<svg width="40" height="40" viewBox="0 0 40 40" fill="none" xmlns="http://www.w3.org/2000/svg">
<path fill-rule="evenodd" clip-rule="evenodd" d="M20 0C8.955 0 0 8.955 0 20C0 31.045 8.955 40 20 40C31.045 40 40 31.045 40 20C40 8.955 31.045 0 20 0ZM20 3.33333C29.19 3.33333 36.6667 10.81 36.6667 20C36.6667 29.19 29.19 36.6667 20 36.6667C10.81 36.6667 3.33333 29.19 3.33333 20C3.33333 10.81 10.81 3.33333 20 3.33333ZM28.5733 27.5H11.4267C10.64 27.5 10 26.86 10 26.0733V14.76C10 13.9733 10.64 13.3333 11.4267 13.3333H28.5733C29.36 13.3333 30 13.9733 30 14.76V26.0733C30 26.86 29.36 27.5 28.5733 27.5ZM20 22.4283L12.215 17.0267L12.1983 26.6667H27.7683V17.0267L20 22.4283ZM27.3917 14.1667H12.5667L20 19.3583C20 19.3583 25.21 15.6867 27.3917 14.1667Z" fill="#694B41"/>
</svg>
