<svg width="40" height="40" viewBox="0 0 40 40" fill="none" xmlns="http://www.w3.org/2000/svg">
<g clip-path="url(#clip0_43_77)">
<path d="M29.5979 22.9846C29.52 22.9472 26.6039 21.5113 26.0857 21.3248C25.8741 21.2488 25.6475 21.1746 25.4065 21.1746C25.0127 21.1746 24.6819 21.3709 24.4243 21.7563C24.133 22.1893 23.2512 23.2201 22.9787 23.528C22.9431 23.5687 22.8945 23.6172 22.8654 23.6172C22.8393 23.6172 22.388 23.4314 22.2514 23.372C19.1232 22.0132 16.7488 18.7456 16.4232 18.1945C16.3767 18.1153 16.3748 18.0793 16.3744 18.0793C16.3858 18.0374 16.491 17.9319 16.5453 17.8775C16.7041 17.7204 16.8762 17.5132 17.0427 17.3128C17.1216 17.2179 17.2005 17.1228 17.278 17.0332C17.5196 16.7522 17.6271 16.534 17.7518 16.2813L17.8171 16.15C18.1216 15.5452 17.8616 15.0348 17.7775 14.87C17.7086 14.732 16.4773 11.7604 16.3464 11.4481C16.0316 10.6948 15.6156 10.344 15.0375 10.344C14.9839 10.344 15.0375 10.344 14.8126 10.3535C14.5387 10.365 13.0471 10.5614 12.3877 10.9771C11.6883 11.418 10.5052 12.8235 10.5052 15.2952C10.5052 17.5197 11.9169 19.6201 12.523 20.4189C12.538 20.4391 12.5657 20.48 12.6058 20.5387C14.927 23.9285 17.8206 26.4407 20.754 27.6126C23.578 28.7406 24.9153 28.871 25.6756 28.871H25.6757C25.9952 28.871 26.2509 28.8459 26.4765 28.8237L26.6196 28.8101C27.5952 28.7236 29.7391 27.6127 30.2267 26.2575C30.6109 25.1901 30.7122 24.0239 30.4566 23.6006C30.2816 23.3128 29.9799 23.168 29.5979 22.9846Z" fill="#694B41"/>
<path d="M20.355 0C9.52179 0 0.708281 8.74727 0.708281 19.4991C0.708281 22.9766 1.63893 26.3806 3.40192 29.3599L0.0275023 39.3138C-0.0353548 39.4994 0.0113984 39.7045 0.148671 39.8443C0.247762 39.9455 0.382178 40 0.51945 40C0.572048 40 0.625035 39.9921 0.676723 39.9756L11.0559 36.6774C13.8962 38.1949 17.1063 38.996 20.3552 38.996C31.1874 38.9961 40 30.2497 40 19.4991C40 8.74727 31.1874 0 20.355 0ZM20.355 34.9343C17.298 34.9343 14.3371 34.0516 11.7919 32.3814C11.7063 32.3252 11.607 32.2964 11.507 32.2964C11.4541 32.2964 11.4011 32.3044 11.3496 32.3208L6.15023 33.9735L7.82867 29.0217C7.88296 28.8614 7.85581 28.6847 7.75581 28.5481C5.81763 25.8997 4.79309 22.7708 4.79309 19.4991C4.79309 10.987 11.7741 4.06182 20.3549 4.06182C28.9346 4.06182 35.9149 10.987 35.9149 19.4991C35.915 28.0101 28.9349 34.9343 20.355 34.9343Z" fill="#694B41"/>
</g>
<defs>
<clipPath id="clip0_43_77">
<rect width="40" height="40" fill="white"/>
</clipPath>
</defs>
</svg>
