<svg width="24" height="33" viewBox="0 0 24 33" fill="none" xmlns="http://www.w3.org/2000/svg">
<path d="M16.5508 24.4805C16.0273 24.4805 15.5273 24.3867 15.0508 24.1992C14.582 24.0195 14.1289 23.7617 13.6914 23.4258C13.2773 23.7617 12.8008 24.0195 12.2617 24.1992C11.7305 24.3867 11.1523 24.4805 10.5273 24.4805C9.77734 24.4805 9.04688 24.3789 8.33594 24.1758C7.625 23.9805 6.99219 23.6641 6.4375 23.2266C5.88281 22.7812 5.4375 22.207 5.10156 21.5039C4.76562 20.8008 4.59766 19.9375 4.59766 18.9141C4.59766 18.2266 4.66797 17.5938 4.80859 17.0156C4.95703 16.4375 5.16016 15.9023 5.41797 15.4102C5.67578 14.9102 5.98828 14.4375 6.35547 13.9922C6.72266 13.5469 7.12891 13.1055 7.57422 12.668C7.38672 11.9492 7.23828 11.2539 7.12891 10.582C7.02734 9.91016 6.97656 9.26172 6.97656 8.63672C6.97656 7.91797 7.07031 7.26953 7.25781 6.69141C7.45312 6.10547 7.73047 5.60156 8.08984 5.17969C8.44922 4.75 8.88281 4.42187 9.39062 4.19531C9.90625 3.96094 10.4922 3.84375 11.1484 3.84375C11.8672 3.84375 12.4453 4.04297 12.8828 4.44141C13.3281 4.83984 13.5508 5.38281 13.5508 6.07031C13.5508 6.40625 13.5117 6.74609 13.4336 7.08984C13.3555 7.43359 13.1914 7.8125 12.9414 8.22656C12.6914 8.63281 12.3398 9.10156 11.8867 9.63281C11.4414 10.1562 10.8516 10.7773 10.1172 11.4961C9.92969 11.6914 9.74609 11.8828 9.56641 12.0703C9.39453 12.25 9.22656 12.4258 9.0625 12.5977C9.21094 13.0117 9.37109 13.4297 9.54297 13.8516C9.72266 14.2656 9.91406 14.6875 10.1172 15.1172C10.5312 14.9922 10.9492 14.9297 11.3711 14.9297C11.8945 14.9297 12.3984 15.0156 12.8828 15.1875C13.375 15.3516 13.8125 15.6133 14.1953 15.9727C14.5859 16.332 14.8945 16.8008 15.1211 17.3789C15.3555 17.9492 15.4727 18.6367 15.4727 19.4414C15.4727 20.6367 15.1758 21.6523 14.582 22.4883C14.9492 22.9023 15.2969 23.2188 15.625 23.4375C15.9531 23.6562 16.3008 23.7656 16.668 23.7656C17.0195 23.7656 17.3008 23.6836 17.5117 23.5195C17.7227 23.3477 17.8867 23.1289 18.0039 22.8633C18.1211 22.5977 18.1992 22.3125 18.2383 22.0078C18.2852 21.7031 18.3086 21.4062 18.3086 21.1172V20.3555H19.0703V21.1172C19.0703 22.0781 18.875 22.8789 18.4844 23.5195C18.0938 24.1602 17.4492 24.4805 16.5508 24.4805ZM7.73828 18.2344C7.73828 17.8047 7.81641 17.3945 7.97266 17.0039C8.13672 16.6133 8.37891 16.2656 8.69922 15.9609C8.55859 15.6406 8.42578 15.3125 8.30078 14.9766C8.18359 14.6406 8.07031 14.3125 7.96094 13.9922C7.44531 14.7109 7.05469 15.4648 6.78906 16.2539C6.53125 17.0352 6.40234 17.9062 6.40234 18.8672C6.40234 20.5 6.78125 21.7266 7.53906 22.5469C8.29688 23.3594 9.28516 23.7656 10.5039 23.7656C10.9336 23.7656 11.3789 23.707 11.8398 23.5898C12.3086 23.4648 12.7422 23.25 13.1406 22.9453C12.5859 22.3984 12.0195 21.7188 11.4414 20.9062C11.1211 21.0469 10.7461 21.1172 10.3164 21.1172C9.84766 21.1172 9.45312 21.0391 9.13281 20.8828C8.8125 20.7188 8.54688 20.5078 8.33594 20.25C8.13281 19.9844 7.98047 19.6758 7.87891 19.3242C7.78516 18.9727 7.73828 18.6094 7.73828 18.2344ZM8.24219 8.61328C8.24219 9.52734 8.40234 10.5273 8.72266 11.6133C8.85547 11.5195 8.95312 11.4414 9.01562 11.3789C9.73438 10.7539 10.332 10.1875 10.8086 9.67969C11.293 9.16406 11.6836 8.69531 11.9805 8.27344C12.2773 7.84375 12.4844 7.44922 12.6016 7.08984C12.7266 6.73047 12.7891 6.38281 12.7891 6.04688C12.7891 5.60156 12.6523 5.24219 12.3789 4.96875C12.1055 4.69531 11.7031 4.55859 11.1719 4.55859C10.6641 4.55859 10.2266 4.66406 9.85938 4.875C9.49219 5.07812 9.1875 5.36328 8.94531 5.73047C8.70312 6.08984 8.52344 6.51953 8.40625 7.01953C8.29688 7.51172 8.24219 8.04297 8.24219 8.61328ZM12.4727 19.3711C12.7773 19.8789 13.0586 20.3438 13.3164 20.7656C13.582 21.1797 13.8438 21.5547 14.1016 21.8906C14.2812 21.5703 14.4258 21.2109 14.5352 20.8125C14.6445 20.4062 14.6992 19.9492 14.6992 19.4414C14.6992 18.7539 14.6055 18.1719 14.418 17.6953C14.2383 17.2109 13.9922 16.8164 13.6797 16.5117C13.3672 16.207 13.0117 15.9883 12.6133 15.8555C12.2148 15.7148 11.8008 15.6445 11.3711 15.6445C11.0664 15.6445 10.7539 15.6875 10.4336 15.7734C10.7539 16.375 11.082 16.9766 11.418 17.5781C11.7539 18.1797 12.1055 18.7773 12.4727 19.3711ZM10.3164 20.4023C10.5664 20.4023 10.7969 20.3633 11.0078 20.2852L10.5977 19.6055C10.3086 19.1602 10.0312 18.6914 9.76562 18.1992C9.50781 17.6992 9.25781 17.1914 9.01562 16.6758C8.67969 17.0977 8.51172 17.6172 8.51172 18.2344C8.51172 19.0078 8.69531 19.5625 9.0625 19.8984C9.42969 20.2344 9.84766 20.4023 10.3164 20.4023Z" fill="#F69EAC"/>
</svg>
