<svg width="21" height="33" viewBox="0 0 21 33" fill="none" xmlns="http://www.w3.org/2000/svg">
<path d="M16.7344 32.6406C16.0365 32.6406 15.3698 32.5156 14.7344 32.2656C14.1094 32.026 13.5052 31.6823 12.9219 31.2344C12.3698 31.6823 11.7344 32.026 11.0156 32.2656C10.3073 32.5156 9.53646 32.6406 8.70312 32.6406C7.70312 32.6406 6.72917 32.5052 5.78125 32.2344C4.83333 31.974 3.98958 31.5521 3.25 30.9688C2.51042 30.375 1.91667 29.6094 1.46875 28.6719C1.02083 27.7344 0.796875 26.5833 0.796875 25.2188C0.796875 24.3021 0.890625 23.4583 1.07812 22.6875C1.27604 21.9167 1.54688 21.2031 1.89062 20.5469C2.23438 19.8802 2.65104 19.25 3.14062 18.6562C3.63021 18.0625 4.17188 17.474 4.76562 16.8906C4.51562 15.9323 4.31771 15.0052 4.17188 14.1094C4.03646 13.2135 3.96875 12.349 3.96875 11.5156C3.96875 10.5573 4.09375 9.69271 4.34375 8.92188C4.60417 8.14062 4.97396 7.46875 5.45312 6.90625C5.93229 6.33333 6.51042 5.89583 7.1875 5.59375C7.875 5.28125 8.65625 5.125 9.53125 5.125C10.4896 5.125 11.2604 5.39062 11.8438 5.92188C12.4375 6.45312 12.7344 7.17708 12.7344 8.09375C12.7344 8.54167 12.6823 8.99479 12.5781 9.45312C12.474 9.91146 12.2552 10.4167 11.9219 10.9688C11.5885 11.5104 11.1198 12.1354 10.5156 12.8438C9.92188 13.5417 9.13542 14.3698 8.15625 15.3281C7.90625 15.5885 7.66146 15.8438 7.42188 16.0938C7.19271 16.3333 6.96875 16.5677 6.75 16.7969C6.94792 17.349 7.16146 17.9062 7.39062 18.4688C7.63021 19.0208 7.88542 19.5833 8.15625 20.1562C8.70833 19.9896 9.26562 19.9062 9.82812 19.9062C10.526 19.9062 11.1979 20.0208 11.8438 20.25C12.5 20.4688 13.0833 20.8177 13.5938 21.2969C14.1146 21.776 14.526 22.401 14.8281 23.1719C15.1406 23.9323 15.2969 24.849 15.2969 25.9219C15.2969 27.5156 14.901 28.8698 14.1094 29.9844C14.599 30.5365 15.0625 30.9583 15.5 31.25C15.9375 31.5417 16.401 31.6875 16.8906 31.6875C17.3594 31.6875 17.7344 31.5781 18.0156 31.3594C18.2969 31.1302 18.5156 30.8385 18.6719 30.4844C18.8281 30.1302 18.9323 29.75 18.9844 29.3438C19.0469 28.9375 19.0781 28.5417 19.0781 28.1562V27.1406H20.0938V28.1562C20.0938 29.4375 19.8333 30.5052 19.3125 31.3594C18.7917 32.2135 17.9323 32.6406 16.7344 32.6406ZM4.98438 24.3125C4.98438 23.7396 5.08854 23.1927 5.29688 22.6719C5.51562 22.151 5.83854 21.6875 6.26562 21.2812C6.07812 20.8542 5.90104 20.4167 5.73438 19.9688C5.57812 19.5208 5.42708 19.0833 5.28125 18.6562C4.59375 19.6146 4.07292 20.6198 3.71875 21.6719C3.375 22.7135 3.20312 23.875 3.20312 25.1562C3.20312 27.3333 3.70833 28.9688 4.71875 30.0625C5.72917 31.1458 7.04688 31.6875 8.67188 31.6875C9.24479 31.6875 9.83854 31.6094 10.4531 31.4531C11.0781 31.2865 11.6562 31 12.1875 30.5938C11.4479 29.8646 10.6927 28.9583 9.92188 27.875C9.49479 28.0625 8.99479 28.1562 8.42188 28.1562C7.79688 28.1562 7.27083 28.0521 6.84375 27.8438C6.41667 27.625 6.0625 27.3438 5.78125 27C5.51042 26.6458 5.30729 26.2344 5.17188 25.7656C5.04688 25.2969 4.98438 24.8125 4.98438 24.3125ZM5.65625 11.4844C5.65625 12.7031 5.86979 14.0365 6.29688 15.4844C6.47396 15.3594 6.60417 15.2552 6.6875 15.1719C7.64583 14.3385 8.44271 13.5833 9.07812 12.9062C9.72396 12.2188 10.2448 11.5938 10.6406 11.0312C11.0365 10.4583 11.3125 9.93229 11.4688 9.45312C11.6354 8.97396 11.7188 8.51042 11.7188 8.0625C11.7188 7.46875 11.5365 6.98958 11.1719 6.625C10.8073 6.26042 10.2708 6.07812 9.5625 6.07812C8.88542 6.07812 8.30208 6.21875 7.8125 6.5C7.32292 6.77083 6.91667 7.15104 6.59375 7.64062C6.27083 8.11979 6.03125 8.69271 5.875 9.35938C5.72917 10.0156 5.65625 10.724 5.65625 11.4844ZM11.2969 25.8281C11.7031 26.5052 12.0781 27.125 12.4219 27.6875C12.776 28.2396 13.125 28.7396 13.4688 29.1875C13.7083 28.7604 13.901 28.2812 14.0469 27.75C14.1927 27.2083 14.2656 26.599 14.2656 25.9219C14.2656 25.0052 14.1406 24.2292 13.8906 23.5938C13.651 22.9479 13.3229 22.4219 12.9062 22.0156C12.4896 21.6094 12.0156 21.3177 11.4844 21.1406C10.9531 20.9531 10.401 20.8594 9.82812 20.8594C9.42188 20.8594 9.00521 20.9167 8.57812 21.0312C9.00521 21.8333 9.44271 22.6354 9.89062 23.4375C10.3385 24.2396 10.8073 25.0365 11.2969 25.8281ZM8.42188 27.2031C8.75521 27.2031 9.0625 27.151 9.34375 27.0469L8.79688 26.1406C8.41146 25.5469 8.04167 24.9219 7.6875 24.2656C7.34375 23.599 7.01042 22.9219 6.6875 22.2344C6.23958 22.7969 6.01562 23.4896 6.01562 24.3125C6.01562 25.3438 6.26042 26.0833 6.75 26.5312C7.23958 26.9792 7.79688 27.2031 8.42188 27.2031Z" fill="#F69EAC"/>
</svg>
