<svg width="185" height="55" viewBox="0 0 185 55" fill="none" xmlns="http://www.w3.org/2000/svg">
<path d="M16.9912 39.9209C14.7152 39.9209 12.8285 39.4567 11.3311 38.5283C9.83366 37.585 8.62826 36.3496 7.71484 34.8223C6.81641 33.2799 6.18001 31.513 5.80566 29.5215C5.44629 27.5299 5.2666 25.4785 5.2666 23.3672C5.2666 20.7018 5.52116 18.1413 6.03027 15.6855C4.38314 15.0716 2.99056 14.0983 1.85254 12.7656C0.714518 11.4329 0.145508 9.70345 0.145508 7.57715C0.145508 6.19954 0.504883 5.09147 1.22363 4.25293C1.94238 3.39941 2.93066 2.97266 4.18848 2.97266C5.17676 2.97266 5.97038 3.27214 6.56934 3.87109C7.16829 4.47005 7.46777 5.27865 7.46777 6.29688C7.46777 7.375 7.14583 8.17611 6.50195 8.7002C5.85807 9.20931 5.04199 9.46387 4.05371 9.46387V8.09375C4.48796 8.09375 4.91471 7.97396 5.33398 7.73438C5.76823 7.47982 5.98535 7.01562 5.98535 6.3418C5.98535 5.72786 5.82064 5.2487 5.49121 4.9043C5.17676 4.54492 4.71257 4.36523 4.09863 4.36523C3.39486 4.36523 2.80339 4.61979 2.32422 5.12891C1.86003 5.62305 1.62793 6.40918 1.62793 7.4873C1.62793 9.17936 2.07715 10.5794 2.97559 11.6875C3.889 12.7806 5.03451 13.6191 6.41211 14.2031C6.89128 12.2415 7.5127 10.4147 8.27637 8.72266C9.05501 7.01562 9.94596 5.54818 10.9492 4.32031C11.9674 3.09245 13.1204 2.12663 14.4082 1.42285C15.696 0.719076 17.1035 0.367188 18.6309 0.367188C20.4128 0.367188 21.738 0.876302 22.6064 1.89453C23.4899 2.89779 23.9316 4.11816 23.9316 5.55566C23.9316 7.15788 23.6097 8.63281 22.9658 9.98047C22.3219 11.3281 21.431 12.4886 20.293 13.4619C19.1549 14.4202 17.8223 15.1764 16.2949 15.7305C14.7676 16.2845 13.113 16.5615 11.3311 16.5615C10.5674 16.5615 9.84863 16.5091 9.1748 16.4043C9.01009 17.5124 8.8903 18.6654 8.81543 19.8633C8.74056 21.0612 8.70312 22.1019 8.70312 22.9854C8.70312 24.6175 8.75553 26.07 8.86035 27.3428C8.96517 28.6156 9.11491 29.7461 9.30957 30.7344C9.51921 31.7077 9.77376 32.5762 10.0732 33.3398C10.3877 34.1035 10.7471 34.7773 11.1514 35.3613C11.8551 36.3796 12.7236 37.1657 13.7568 37.7197C14.805 38.2738 15.8682 38.5508 16.9463 38.5508C17.7998 38.5508 18.6982 38.416 19.6416 38.1465C20.5999 37.862 21.4609 37.3978 22.2246 36.7539C22.9883 36.11 23.6247 35.2565 24.1338 34.1934C24.6429 33.1302 24.8975 31.82 24.8975 30.2627C24.8975 28.945 24.7178 27.8294 24.3584 26.916C24.014 25.9876 23.5423 25.2314 22.9434 24.6475C22.3444 24.0635 21.6631 23.6442 20.8994 23.3896C20.1357 23.1201 19.3346 22.9854 18.4961 22.9854C16.9089 22.9854 15.5986 23.4346 14.5654 24.333C13.5472 25.2165 13.0381 26.4219 13.0381 27.9492C13.0381 29.4316 13.39 30.4948 14.0938 31.1387C14.7975 31.7826 15.5911 32.1045 16.4746 32.1045C17.1185 32.1045 17.6501 31.9847 18.0693 31.7451C18.4886 31.4906 18.818 31.1611 19.0576 30.7568C19.2972 30.3376 19.4619 29.8584 19.5518 29.3193C19.6566 28.7803 19.709 28.2188 19.709 27.6348H21.1689C21.1689 29.2969 20.8245 30.6895 20.1357 31.8125C19.4469 32.9206 18.2266 33.4746 16.4746 33.4746C15.5911 33.4746 14.8424 33.3249 14.2285 33.0254C13.6146 32.7109 13.1055 32.3066 12.7012 31.8125C12.3118 31.3034 12.0199 30.7119 11.8252 30.0381C11.6455 29.3643 11.5557 28.668 11.5557 27.9492C11.5557 27.0957 11.7129 26.2871 12.0273 25.5234C12.3568 24.7598 12.821 24.0859 13.4199 23.502C14.0189 22.918 14.7451 22.4613 15.5986 22.1318C16.4671 21.7874 17.4329 21.6152 18.4961 21.6152C19.5143 21.6152 20.4876 21.7799 21.416 22.1094C22.3594 22.4238 23.1979 22.9255 23.9316 23.6143C24.6654 24.3031 25.2568 25.2015 25.7061 26.3096C26.1553 27.4027 26.3799 28.7204 26.3799 30.2627C26.3799 31.7002 26.1553 33.0104 25.7061 34.1934C25.2568 35.3763 24.6204 36.387 23.7969 37.2256C22.9733 38.0641 21.985 38.723 20.832 39.2021C19.679 39.6813 18.3988 39.9209 16.9912 39.9209ZM11.2861 15.1689C12.9033 15.1689 14.3932 14.9368 15.7559 14.4727C17.1335 13.9935 18.3164 13.3346 19.3047 12.4961C20.3079 11.6426 21.0791 10.6318 21.6182 9.46387C22.1722 8.2959 22.4492 7.03809 22.4492 5.69043C22.4492 4.46257 22.1198 3.49674 21.4609 2.79297C20.8021 2.08919 19.8438 1.7373 18.5859 1.7373C17.2682 1.7373 16.1003 2.12663 15.082 2.90527C14.0788 3.66895 13.2028 4.67969 12.4541 5.9375C11.7054 7.18034 11.0765 8.59538 10.5674 10.1826C10.0583 11.7549 9.66895 13.3721 9.39941 15.0342C9.9834 15.124 10.6123 15.1689 11.2861 15.1689ZM44.8203 30.1279C44.8203 30.9215 44.8203 31.6029 44.8203 32.1719C44.8203 32.7409 44.8353 33.2425 44.8652 33.6768C44.8952 34.096 44.9176 34.4704 44.9326 34.7998C44.9476 35.1143 44.985 35.4287 45.0449 35.7432C45.1647 36.5368 45.4118 37.2031 45.7861 37.7422C46.1605 38.2812 46.6995 38.5508 47.4033 38.5508C47.9274 38.5508 48.3392 38.401 48.6387 38.1016C48.9531 37.7871 49.1927 37.3978 49.3574 36.9336C49.5221 36.4694 49.627 35.9753 49.6719 35.4512C49.7168 34.9271 49.7393 34.4404 49.7393 33.9912V32.0146H51.2217V33.9463C51.2217 34.7699 51.1543 35.541 51.0195 36.2598C50.8997 36.9785 50.6751 37.6149 50.3457 38.1689C50.0312 38.723 49.597 39.1497 49.043 39.4492C48.5039 39.7637 47.8001 39.9209 46.9316 39.9209C45.6439 39.9209 44.6032 39.5465 43.8096 38.7979C43.016 38.0492 42.5068 37.0609 42.2822 35.833H41.833C41.4886 37.001 40.9196 37.9743 40.126 38.7529C39.3324 39.5316 38.2318 39.9209 36.8242 39.9209C35.7461 39.9209 34.7503 39.6963 33.8369 39.2471C32.9385 38.8128 32.2272 38.1615 31.7031 37.293C31.194 36.4395 30.8271 35.4362 30.6025 34.2832C30.3929 33.1302 30.2881 31.7451 30.2881 30.1279V24.0859H29.8164C29.7266 24.61 29.472 25.1117 29.0527 25.5908C28.6484 26.07 28.1393 26.3096 27.5254 26.3096V24.917C27.9896 24.7972 28.3864 24.5651 28.7158 24.2207C29.0602 23.8613 29.3447 23.472 29.5693 23.0527C29.7939 22.6185 29.9661 22.1842 30.0859 21.75C30.2207 21.3158 30.2881 20.9339 30.2881 20.6045H33.2754V30.1279C33.2754 31.805 33.3428 33.1377 33.4775 34.126C33.6123 35.0993 33.8818 35.9453 34.2861 36.6641C34.6305 37.278 35.0723 37.7497 35.6113 38.0791C36.1654 38.3936 36.7943 38.5508 37.498 38.5508C38.2767 38.5508 38.9355 38.3337 39.4746 37.8994C40.0286 37.4652 40.4779 36.8662 40.8223 36.1025C41.1816 35.3389 41.4362 34.4554 41.5859 33.4521C41.7507 32.4339 41.833 31.3258 41.833 30.1279V24.0859H41.3613C41.2715 24.61 40.9945 25.1117 40.5303 25.5908C40.0811 26.07 39.5495 26.3096 38.9355 26.3096V24.917C39.3997 24.7972 39.804 24.5651 40.1484 24.2207C40.5078 23.8613 40.8148 23.472 41.0693 23.0527C41.3389 22.6185 41.5335 22.1842 41.6533 21.75C41.7731 21.3158 41.833 20.9339 41.833 20.6045H44.8203V30.1279ZM60.9248 21.0537C59.4424 21.0537 58.3418 21.8024 57.623 23.2998C56.9043 24.7822 56.5449 26.9609 56.5449 29.8359C56.5449 32.696 56.9118 34.8672 57.6455 36.3496C58.3792 37.8171 59.4723 38.5508 60.9248 38.5508C62.3923 38.5508 63.4854 37.8096 64.2041 36.3271C64.9229 34.8298 65.2822 32.6361 65.2822 29.7461C65.2822 23.9512 63.8298 21.0537 60.9248 21.0537ZM53.5576 24.0859H53.0859C52.9961 24.61 52.7415 25.1117 52.3223 25.5908C51.918 26.07 51.4089 26.3096 50.7949 26.3096V24.917C51.2591 24.7972 51.6559 24.5651 51.9854 24.2207C52.3298 23.8613 52.6143 23.472 52.8389 23.0527C53.0635 22.6185 53.2357 22.1842 53.3555 21.75C53.4902 21.3158 53.5576 20.9339 53.5576 20.6045H56.5449V22.5361H56.9941C57.5482 21.6377 58.237 20.9414 59.0605 20.4473C59.8991 19.9382 60.8275 19.6836 61.8457 19.6836C63.957 19.6836 65.5518 20.5671 66.6299 22.334C67.723 24.0859 68.2695 26.5866 68.2695 29.8359C68.2695 31.8125 68.0299 33.527 67.5508 34.9795C67.0866 36.432 66.3903 37.585 65.4619 38.4385C64.8779 38.9925 64.2565 39.3743 63.5977 39.584C62.9388 39.8086 62.1676 39.9209 61.2842 39.9209C60.1162 39.9209 59.098 39.5615 58.2295 38.8428C57.376 38.124 56.8145 37.1208 56.5449 35.833H56.0957C56.1257 37.0309 56.1706 38.431 56.2305 40.0332C56.2904 41.6504 56.3652 43.305 56.4551 44.9971C56.5449 46.7041 56.6423 48.3587 56.7471 49.9609C56.8519 51.5781 56.9567 52.9857 57.0615 54.1836H54.0518C53.9919 53.2253 53.932 51.9974 53.8721 50.5C53.8122 49.0026 53.7598 47.4154 53.7148 45.7383C53.6699 44.0612 53.6325 42.3841 53.6025 40.707C53.5726 39.0449 53.5576 37.555 53.5576 36.2373V24.0859ZM93.4932 39.9209C92.4899 39.9209 91.5316 39.7412 90.6182 39.3818C89.7197 39.0374 88.8512 38.5433 88.0127 37.8994C87.2191 38.5433 86.3057 39.0374 85.2725 39.3818C84.2542 39.7412 83.1462 39.9209 81.9482 39.9209C80.5107 39.9209 79.1107 39.7262 77.748 39.3369C76.3854 38.9626 75.1725 38.3561 74.1094 37.5176C73.0462 36.6641 72.1927 35.5635 71.5488 34.2158C70.9049 32.8682 70.583 31.2135 70.583 29.252C70.583 27.9342 70.7178 26.7214 70.9873 25.6133C71.2718 24.5052 71.6611 23.4795 72.1553 22.5361C72.6494 21.5778 73.2484 20.6719 73.9521 19.8184C74.6559 18.9648 75.4346 18.1188 76.2881 17.2803C75.9287 15.9027 75.6442 14.57 75.4346 13.2822C75.2399 11.9945 75.1426 10.7516 75.1426 9.55371C75.1426 8.17611 75.3223 6.93327 75.6816 5.8252C76.056 4.70215 76.5876 3.73633 77.2764 2.92773C77.9652 2.10417 78.7962 1.47526 79.7695 1.04102C80.7578 0.591797 81.8809 0.367188 83.1387 0.367188C84.5163 0.367188 85.6243 0.749023 86.4629 1.5127C87.3164 2.27637 87.7432 3.31706 87.7432 4.63477C87.7432 5.27865 87.6683 5.93001 87.5186 6.58887C87.3688 7.24772 87.0544 7.97396 86.5752 8.76758C86.096 9.54622 85.4222 10.4447 84.5537 11.4629C83.7002 12.4661 82.5697 13.6566 81.1621 15.0342C80.8027 15.4085 80.4508 15.7754 80.1064 16.1348C79.777 16.4792 79.4551 16.8161 79.1406 17.1455C79.4251 17.9391 79.7321 18.7402 80.0615 19.5488C80.4059 20.3424 80.7728 21.151 81.1621 21.9746C81.9557 21.735 82.7568 21.6152 83.5654 21.6152C84.5687 21.6152 85.5345 21.7799 86.4629 22.1094C87.4062 22.4238 88.2448 22.9255 88.9785 23.6143C89.7272 24.3031 90.3187 25.2015 90.7529 26.3096C91.2021 27.4027 91.4268 28.7204 91.4268 30.2627C91.4268 32.5537 90.8577 34.5003 89.7197 36.1025C90.4235 36.8962 91.0898 37.5026 91.7188 37.9219C92.3477 38.3411 93.014 38.5508 93.7178 38.5508C94.3916 38.5508 94.9307 38.3936 95.335 38.0791C95.7393 37.7497 96.0537 37.3304 96.2783 36.8213C96.5029 36.3122 96.6527 35.7656 96.7275 35.1816C96.8174 34.5977 96.8623 34.0286 96.8623 33.4746V32.0146H98.3223V33.4746C98.3223 35.3164 97.9479 36.8512 97.1992 38.0791C96.4505 39.307 95.2152 39.9209 93.4932 39.9209ZM76.6025 27.9492C76.6025 27.1257 76.7523 26.3395 77.0518 25.5908C77.3662 24.8421 77.8304 24.1758 78.4443 23.5918C78.1748 22.9779 77.9202 22.349 77.6807 21.7051C77.4561 21.0612 77.2389 20.4323 77.0293 19.8184C76.041 21.196 75.2923 22.641 74.7832 24.1533C74.2891 25.6507 74.042 27.3203 74.042 29.1621C74.042 32.2917 74.7682 34.6426 76.2207 36.2148C77.6732 37.7721 79.5674 38.5508 81.9033 38.5508C82.7269 38.5508 83.5804 38.4385 84.4639 38.2139C85.3623 37.9743 86.1934 37.5625 86.957 36.9785C85.8939 35.9303 84.8083 34.6276 83.7002 33.0703C83.0863 33.3398 82.3675 33.4746 81.5439 33.4746C80.6455 33.4746 79.8893 33.3249 79.2754 33.0254C78.6615 32.7109 78.1523 32.3066 77.748 31.8125C77.3587 31.3034 77.0667 30.7119 76.8721 30.0381C76.6924 29.3643 76.6025 28.668 76.6025 27.9492ZM77.5684 9.50879C77.5684 11.2607 77.8753 13.1774 78.4893 15.2588C78.7438 15.0791 78.931 14.9294 79.0508 14.8096C80.4284 13.6117 81.5739 12.526 82.4873 11.5527C83.4157 10.5645 84.1644 9.66602 84.7334 8.85742C85.3024 8.03385 85.6992 7.27767 85.9238 6.58887C86.1634 5.90007 86.2832 5.23372 86.2832 4.58984C86.2832 3.73633 86.0212 3.04753 85.4971 2.52344C84.973 1.99935 84.2018 1.7373 83.1836 1.7373C82.2103 1.7373 81.3717 1.93945 80.668 2.34375C79.9642 2.73307 79.3802 3.27962 78.916 3.9834C78.4518 4.6722 78.1074 5.49577 77.8828 6.4541C77.6732 7.39746 77.5684 8.41569 77.5684 9.50879ZM85.6768 30.1279C86.2607 31.1012 86.7998 31.9922 87.2939 32.8008C87.8031 33.5944 88.3047 34.3132 88.7988 34.957C89.1432 34.3431 89.4202 33.6543 89.6299 32.8906C89.8395 32.112 89.9443 31.236 89.9443 30.2627C89.9443 28.945 89.7646 27.8294 89.4053 26.916C89.0609 25.9876 88.5892 25.2314 87.9902 24.6475C87.3913 24.0635 86.71 23.6442 85.9463 23.3896C85.1826 23.1201 84.389 22.9854 83.5654 22.9854C82.9814 22.9854 82.3825 23.0677 81.7686 23.2324C82.3825 24.3854 83.0114 25.5384 83.6553 26.6914C84.2992 27.8444 84.973 28.9899 85.6768 30.1279ZM81.5439 32.1045C82.0231 32.1045 82.4648 32.0296 82.8691 31.8799L82.083 30.5771C81.529 29.7236 80.9974 28.8252 80.4883 27.8818C79.9941 26.9235 79.515 25.9502 79.0508 24.9619C78.4069 25.7705 78.085 26.7663 78.085 27.9492C78.085 29.4316 78.4368 30.4948 79.1406 31.1387C79.8444 31.7826 80.6455 32.1045 81.5439 32.1045ZM116.313 39.9209C114.037 39.9209 112.151 39.4567 110.653 38.5283C109.156 37.585 107.951 36.3496 107.037 34.8223C106.139 33.2799 105.502 31.513 105.128 29.5215C104.769 27.5299 104.589 25.4785 104.589 23.3672C104.589 20.7018 104.843 18.1413 105.353 15.6855C103.705 15.0716 102.313 14.0983 101.175 12.7656C100.037 11.4329 99.4678 9.70345 99.4678 7.57715C99.4678 6.19954 99.8271 5.09147 100.546 4.25293C101.265 3.39941 102.253 2.97266 103.511 2.97266C104.499 2.97266 105.293 3.27214 105.892 3.87109C106.491 4.47005 106.79 5.27865 106.79 6.29688C106.79 7.375 106.468 8.17611 105.824 8.7002C105.18 9.20931 104.364 9.46387 103.376 9.46387V8.09375C103.81 8.09375 104.237 7.97396 104.656 7.73438C105.09 7.47982 105.308 7.01562 105.308 6.3418C105.308 5.72786 105.143 5.2487 104.813 4.9043C104.499 4.54492 104.035 4.36523 103.421 4.36523C102.717 4.36523 102.126 4.61979 101.646 5.12891C101.182 5.62305 100.95 6.40918 100.95 7.4873C100.95 9.17936 101.399 10.5794 102.298 11.6875C103.211 12.7806 104.357 13.6191 105.734 14.2031C106.214 12.2415 106.835 10.4147 107.599 8.72266C108.377 7.01562 109.268 5.54818 110.271 4.32031C111.29 3.09245 112.443 2.12663 113.73 1.42285C115.018 0.719076 116.426 0.367188 117.953 0.367188C119.735 0.367188 121.06 0.876302 121.929 1.89453C122.812 2.89779 123.254 4.11816 123.254 5.55566C123.254 7.15788 122.932 8.63281 122.288 9.98047C121.644 11.3281 120.753 12.4886 119.615 13.4619C118.477 14.4202 117.145 15.1764 115.617 15.7305C114.09 16.2845 112.435 16.5615 110.653 16.5615C109.89 16.5615 109.171 16.5091 108.497 16.4043C108.332 17.5124 108.213 18.6654 108.138 19.8633C108.063 21.0612 108.025 22.1019 108.025 22.9854C108.025 24.6175 108.078 26.07 108.183 27.3428C108.287 28.6156 108.437 29.7461 108.632 30.7344C108.841 31.7077 109.096 32.5762 109.396 33.3398C109.71 34.1035 110.069 34.7773 110.474 35.3613C111.177 36.3796 112.046 37.1657 113.079 37.7197C114.127 38.2738 115.19 38.5508 116.269 38.5508C117.122 38.5508 118.021 38.416 118.964 38.1465C119.922 37.862 120.783 37.3978 121.547 36.7539C122.311 36.11 122.947 35.2565 123.456 34.1934C123.965 33.1302 124.22 31.82 124.22 30.2627C124.22 28.945 124.04 27.8294 123.681 26.916C123.336 25.9876 122.865 25.2314 122.266 24.6475C121.667 24.0635 120.985 23.6442 120.222 23.3896C119.458 23.1201 118.657 22.9854 117.818 22.9854C116.231 22.9854 114.921 23.4346 113.888 24.333C112.869 25.2165 112.36 26.4219 112.36 27.9492C112.36 29.4316 112.712 30.4948 113.416 31.1387C114.12 31.7826 114.913 32.1045 115.797 32.1045C116.441 32.1045 116.972 31.9847 117.392 31.7451C117.811 31.4906 118.14 31.1611 118.38 30.7568C118.619 30.3376 118.784 29.8584 118.874 29.3193C118.979 28.7803 119.031 28.2188 119.031 27.6348H120.491C120.491 29.2969 120.147 30.6895 119.458 31.8125C118.769 32.9206 117.549 33.4746 115.797 33.4746C114.913 33.4746 114.165 33.3249 113.551 33.0254C112.937 32.7109 112.428 32.3066 112.023 31.8125C111.634 31.3034 111.342 30.7119 111.147 30.0381C110.968 29.3643 110.878 28.668 110.878 27.9492C110.878 27.0957 111.035 26.2871 111.35 25.5234C111.679 24.7598 112.143 24.0859 112.742 23.502C113.341 22.918 114.067 22.4613 114.921 22.1318C115.789 21.7874 116.755 21.6152 117.818 21.6152C118.837 21.6152 119.81 21.7799 120.738 22.1094C121.682 22.4238 122.52 22.9255 123.254 23.6143C123.988 24.3031 124.579 25.2015 125.028 26.3096C125.478 27.4027 125.702 28.7204 125.702 30.2627C125.702 31.7002 125.478 33.0104 125.028 34.1934C124.579 35.3763 123.943 36.387 123.119 37.2256C122.296 38.0641 121.307 38.723 120.154 39.2021C119.001 39.6813 117.721 39.9209 116.313 39.9209ZM110.608 15.1689C112.226 15.1689 113.715 14.9368 115.078 14.4727C116.456 13.9935 117.639 13.3346 118.627 12.4961C119.63 11.6426 120.401 10.6318 120.94 9.46387C121.494 8.2959 121.771 7.03809 121.771 5.69043C121.771 4.46257 121.442 3.49674 120.783 2.79297C120.124 2.08919 119.166 1.7373 117.908 1.7373C116.59 1.7373 115.423 2.12663 114.404 2.90527C113.401 3.66895 112.525 4.67969 111.776 5.9375C111.028 7.18034 110.399 8.59538 109.89 10.1826C109.381 11.7549 108.991 13.3721 108.722 15.0342C109.306 15.124 109.935 15.1689 110.608 15.1689ZM135.36 19.6836C137.696 19.6836 139.508 20.5671 140.796 22.334C142.084 24.0859 142.728 26.9609 142.728 30.959C142.728 31.9323 142.743 32.8757 142.772 33.7891C142.802 34.6875 142.892 35.4886 143.042 36.1924C143.192 36.8962 143.446 37.4652 143.806 37.8994C144.18 38.3337 144.689 38.5508 145.333 38.5508C145.857 38.5508 146.269 38.3936 146.568 38.0791C146.883 37.7497 147.115 37.3529 147.265 36.8887C147.429 36.4245 147.534 35.9303 147.579 35.4062C147.624 34.8822 147.646 34.4105 147.646 33.9912V32.0146H149.106V33.9463C149.106 34.7998 149.047 35.5934 148.927 36.3271C148.807 37.0609 148.582 37.6898 148.253 38.2139C147.938 38.738 147.504 39.1497 146.95 39.4492C146.396 39.7637 145.692 39.9209 144.839 39.9209C143.551 39.9209 142.51 39.5615 141.717 38.8428C140.938 38.124 140.429 37.1208 140.189 35.833H139.718C139.448 36.8962 138.902 37.847 138.078 38.6855C137.27 39.5091 136.176 39.9209 134.799 39.9209C133.571 39.9209 132.53 39.6514 131.677 39.1123C130.823 38.5732 130.119 37.847 129.565 36.9336C129.011 36.0052 128.607 34.9421 128.353 33.7441C128.113 32.5312 127.993 31.2285 127.993 29.8359C127.993 26.5866 128.645 24.0859 129.947 22.334C131.25 20.5671 133.054 19.6836 135.36 19.6836ZM135.36 21.0537C132.44 21.0537 130.98 23.9512 130.98 29.7461C130.98 32.6361 131.34 34.8298 132.059 36.3271C132.792 37.8096 133.893 38.5508 135.36 38.5508C136.798 38.5508 137.883 37.8171 138.617 36.3496C139.351 34.8672 139.718 32.696 139.718 29.8359C139.718 26.9609 139.351 24.7822 138.617 23.2998C137.883 21.8024 136.798 21.0537 135.36 21.0537ZM157.799 15.3037C158.817 13.6865 159.551 12.1367 160 10.6543C160.464 9.1569 160.696 7.70443 160.696 6.29688C160.696 5.00911 160.487 3.94596 160.067 3.10742C159.663 2.25391 159.019 1.82715 158.136 1.82715C157.297 1.82715 156.608 2.15658 156.069 2.81543C155.545 3.47428 155.133 4.33529 154.834 5.39844C154.549 6.46159 154.332 7.65951 154.183 8.99219C154.048 10.3249 153.951 11.68 153.891 13.0576C153.891 13.387 153.883 13.7614 153.868 14.1807C153.853 14.5999 153.838 15.0866 153.823 15.6406C153.808 16.1797 153.801 16.8311 153.801 17.5947C153.801 18.3434 153.801 19.2194 153.801 20.2227C154.624 19.429 155.366 18.613 156.024 17.7744C156.683 16.9359 157.275 16.1123 157.799 15.3037ZM162.179 6.11719C162.179 7.58464 161.947 9.03711 161.482 10.4746C161.018 11.9121 160.397 13.3047 159.618 14.6523C158.84 15.985 157.941 17.2503 156.923 18.4482C155.92 19.6312 154.879 20.7168 153.801 21.7051V22.6709H154.25C154.744 21.8773 155.41 21.2035 156.249 20.6494C157.103 20.0954 158.098 19.8184 159.236 19.8184C160.674 19.8184 161.767 20.2077 162.516 20.9863C163.264 21.765 163.639 22.7383 163.639 23.9062C163.639 24.5801 163.496 25.2015 163.212 25.7705C162.942 26.3395 162.59 26.8262 162.156 27.2305C161.737 27.6198 161.258 27.9342 160.719 28.1738C160.18 28.3984 159.641 28.5107 159.102 28.5107V28.9824C159.671 28.9824 160.307 29.0498 161.011 29.1846C161.729 29.3193 162.299 29.6038 162.718 30.0381C163.242 30.5173 163.609 31.1012 163.818 31.79C164.043 32.4639 164.17 33.4746 164.2 34.8223C164.23 36.2598 164.447 37.2406 164.852 37.7646C165.271 38.2887 165.787 38.5508 166.401 38.5508C166.925 38.5508 167.33 38.4085 167.614 38.124C167.914 37.8245 168.138 37.4502 168.288 37.001C168.438 36.5518 168.535 36.0651 168.58 35.541C168.64 35.002 168.67 34.4854 168.67 33.9912V32.0146H170.13V33.9463C170.13 34.8597 170.062 35.6833 169.928 36.417C169.793 37.1507 169.561 37.7796 169.231 38.3037C168.917 38.8278 168.483 39.2246 167.929 39.4941C167.375 39.7786 166.671 39.9209 165.817 39.9209C165.069 39.9209 164.342 39.7637 163.639 39.4492C162.935 39.1497 162.418 38.708 162.089 38.124C161.744 37.5999 161.512 36.9785 161.393 36.2598C161.273 35.541 161.213 34.7549 161.213 33.9014C161.213 32.5537 160.966 31.513 160.472 30.7793C159.978 30.0306 159.072 29.6562 157.754 29.6562H156.092V28.2861H157.103C157.507 28.2861 157.926 28.2113 158.36 28.0615C158.81 27.8968 159.214 27.6572 159.573 27.3428C159.933 27.0133 160.225 26.6016 160.449 26.1074C160.674 25.5983 160.786 24.9919 160.786 24.2881C160.786 23.1201 160.524 22.3115 160 21.8623C159.491 21.4131 158.884 21.1885 158.181 21.1885C157.716 21.1885 157.275 21.3008 156.855 21.5254C156.451 21.735 156.084 22.012 155.755 22.3564C155.44 22.6859 155.156 23.0677 154.901 23.502C154.662 23.9212 154.482 24.348 154.362 24.7822C154.228 25.1566 154.13 25.5758 154.07 26.04C154.01 26.4893 153.958 26.9385 153.913 27.3877C153.868 27.8369 153.838 28.2487 153.823 28.623C153.808 28.9824 153.801 29.252 153.801 29.4316C153.801 31.2435 153.816 32.943 153.846 34.5303C153.876 36.1025 153.965 37.5924 154.115 39H151.128C151.008 37.4727 150.926 35.9229 150.881 34.3506C150.836 32.7633 150.813 31.3258 150.813 30.0381V24.8271C150.559 25.0817 150.267 25.2988 149.938 25.4785C149.623 25.6582 149.331 25.8079 149.062 25.9277C148.732 26.0924 148.395 26.2197 148.051 26.3096V24.917C148.545 24.7074 149.047 24.4678 149.556 24.1982C150.08 23.9137 150.499 23.6517 150.813 23.4121V22.0645C150.813 20.6868 150.821 19.4365 150.836 18.3135C150.851 17.1755 150.888 15.8203 150.948 14.248C151.008 12.4062 151.15 10.6917 151.375 9.10449C151.615 7.50228 152.026 6.01237 152.61 4.63477C152.82 4.11068 153.082 3.60156 153.396 3.10742C153.726 2.59831 154.108 2.13411 154.542 1.71484C154.991 1.29557 155.485 0.966146 156.024 0.726562C156.563 0.486979 157.155 0.367188 157.799 0.367188C159.206 0.367188 160.285 0.891276 161.033 1.93945C161.797 2.97266 162.179 4.36523 162.179 6.11719ZM171.073 29.791C171.073 28.3835 171.23 27.0583 171.545 25.8154C171.874 24.5726 172.354 23.502 172.982 22.6035C173.611 21.6901 174.39 20.9788 175.318 20.4697C176.262 19.9456 177.347 19.6836 178.575 19.6836C180.417 19.6836 181.877 20.2376 182.955 21.3457C184.048 22.4388 184.595 23.8464 184.595 25.5684C184.595 26.7363 184.385 27.777 183.966 28.6904C183.562 29.5889 182.978 30.3451 182.214 30.959C181.45 31.5729 180.544 32.0371 179.496 32.3516C178.448 32.651 177.295 32.8008 176.037 32.8008H174.195C174.3 33.4746 174.442 34.1484 174.622 34.8223C174.802 35.4961 175.056 36.11 175.386 36.6641C175.73 37.2031 176.179 37.6523 176.733 38.0117C177.287 38.3711 177.976 38.5508 178.8 38.5508C179.758 38.5508 180.537 38.3486 181.136 37.9443C181.735 37.54 182.206 37.0234 182.551 36.3945C182.91 35.7656 183.157 35.0618 183.292 34.2832C183.427 33.5046 183.494 32.7484 183.494 32.0146H184.977C184.977 33.0479 184.857 34.0436 184.617 35.002C184.393 35.9453 184.026 36.7913 183.517 37.54C183.007 38.2738 182.349 38.8503 181.54 39.2695C180.731 39.7038 179.743 39.9209 178.575 39.9209C176.149 39.9209 174.293 39.0898 173.005 37.4277C171.717 35.7507 171.073 33.2051 171.073 29.791ZM174.061 31.4082H175.768C177.46 31.4082 178.852 30.9365 179.945 29.9932C181.053 29.0348 181.607 27.6348 181.607 25.793C181.607 25.2389 181.562 24.6849 181.473 24.1309C181.383 23.5618 181.218 23.0452 180.979 22.5811C180.754 22.1169 180.432 21.75 180.013 21.4805C179.608 21.196 179.069 21.0537 178.396 21.0537C177.467 21.0537 176.718 21.3307 176.149 21.8848C175.595 22.4388 175.161 23.1426 174.847 23.9961C174.547 24.8346 174.338 25.778 174.218 26.8262C174.113 27.8594 174.061 28.8477 174.061 29.791V31.4082Z" fill="#none"/>
</svg>
